<?xml version="1.0" standalone="no"?>
<!DOCTYPE svg PUBLIC "-//W3C//DTD SVG 20010904//EN"
 "http://www.w3.org/TR/2001/REC-SVG-20010904/DTD/svg10.dtd">
<svg version="1.0" xmlns="http://www.w3.org/2000/svg"
 width="260.000000pt" height="200.000000pt" viewBox="0 0 260.000000 200.000000"
 preserveAspectRatio="xMidYMid meet">

<g transform="translate(0.000000,200.000000) scale(0.100000,-0.100000)"
fill="#000000" stroke="none">
<path d="M1595 1743 c-35 -5 -128 -34 -123 -38 2 -2 28 3 58 11 30 8 95 15
145 15 63 1 81 4 60 9 -32 8 -91 9 -140 3z"/>
<path d="M1590 1685 c-54 -15 -132 -26 -215 -30 -126 -7 -130 -8 -157 -37 -15
-16 -33 -49 -40 -71 -6 -23 -14 -45 -17 -48 -3 -4 -105 -9 -226 -13 -235 -6
-296 -16 -389 -63 -71 -36 -151 -116 -186 -186 -34 -67 -42 -114 -9 -52 86
164 235 255 397 242 184 -14 323 -120 391 -295 84 -218 78 -442 -17 -629 -27
-51 -137 -164 -188 -193 l-39 -21 90 7 c50 3 99 12 110 19 12 7 67 18 124 24
71 8 125 20 174 41 l72 29 280 3 c307 3 309 4 369 67 26 28 30 39 38 133 4 57
7 251 6 432 l-3 328 -34 29 c-19 16 -58 36 -85 45 -28 9 -82 32 -121 50 -96
46 -111 27 -84 -107 6 -30 14 -117 17 -194 l7 -140 49 -6 c37 -4 55 -12 72
-33 50 -57 15 -146 -56 -146 l-31 0 20 26 c34 43 25 86 -25 119 l-27 18 6
-141 c5 -133 5 -140 -13 -145 -38 -10 -53 -103 -24 -145 15 -22 15 -25 -7 -48
-28 -30 -76 -44 -153 -44 l-58 0 58 63 c63 68 126 188 145 278 15 69 5 183
-21 243 -12 29 -20 70 -20 104 0 74 -23 179 -50 231 -23 46 -71 81 -112 81
-33 0 -68 41 -68 80 0 44 45 74 155 101 67 17 68 18 25 17 -25 0 -83 -10 -130
-23z m-379 -256 c22 -13 19 -14 -46 -17 -43 -2 -79 2 -94 10 l-24 13 34 6 c49
8 102 3 130 -12z m263 -88 c136 -187 174 -475 95 -718 -11 -35 -24 -65 -29
-68 -4 -3 3 29 16 71 45 140 50 327 14 479 -19 79 -84 205 -137 264 -34 39
-40 50 -20 37 15 -10 42 -39 61 -65z m-174 18 c7 -11 10 -22 8 -24 -2 -1 -33
-6 -69 -9 -63 -7 -67 -6 -82 18 -16 24 -16 25 11 29 15 2 48 5 74 6 39 1 49
-3 58 -20z m60 -94 c19 -23 3 -33 -65 -40 -58 -7 -61 -6 -72 18 -15 32 -8 35
68 36 40 1 60 -4 69 -14z m40 -104 c20 -39 13 -48 -46 -55 -31 -4 -58 -5 -60
-3 -2 2 -7 17 -10 35 -7 33 -13 30 88 40 10 1 22 -7 28 -17z m24 -117 c10 -4
16 -18 16 -36 l0 -29 -62 3 c-60 3 -63 4 -66 30 -2 19 2 28 15 31 28 7 80 8
97 1z m41 -159 c0 -30 -1 -30 -61 -33 -59 -3 -62 -2 -68 23 -10 40 0 46 67 43
62 -3 62 -3 62 -33z m-15 -132 c0 -36 -18 -47 -79 -51 -65 -5 -68 -2 -51 42 9
24 14 26 70 26 51 0 60 -3 60 -17z m-60 -148 c-13 -16 -120 -22 -120 -7 0 18
15 22 73 22 52 0 58 -2 47 -15z m-66 -115 c-15 -15 -134 -25 -134 -12 0 11 34
18 105 20 26 1 36 -1 29 -8z m-99 -89 c-14 -12 -123 -25 -110 -12 6 5 30 11
55 14 25 2 49 4 55 5 6 1 6 -1 0 -7z"/>
<path d="M1675 1599 c22 -5 73 -21 113 -35 39 -13 87 -25 105 -26 24 -1 36 -7
43 -22 13 -30 113 -57 194 -54 60 3 65 5 74 30 5 15 8 29 5 32 -2 2 -33 6 -69
10 -122 11 -145 17 -188 47 -23 16 -45 29 -47 29 -3 0 -5 -11 -5 -25 0 -21 -5
-25 -30 -25 -16 0 -64 11 -107 25 -43 14 -89 24 -103 24 -18 -1 -13 -4 15 -10z"/>
<path d="M2255 1424 c37 -54 45 -130 20 -188 -7 -15 -5 -17 12 -12 40 13 50
-14 57 -151 10 -174 5 -483 -8 -508 -9 -19 -10 -19 -17 5 -7 24 -7 24 -8 -5
-2 -44 -35 -93 -68 -100 -15 -4 -37 -11 -48 -16 -15 -7 -11 -8 15 -3 71 11 88
24 121 88 35 67 37 92 41 436 2 165 -18 292 -48 304 -8 3 -14 19 -14 41 0 40
-22 100 -47 127 -28 31 -33 19 -8 -18z"/>
<path d="M1760 1396 c0 -13 7 -29 15 -36 12 -10 16 -9 22 6 4 10 2 19 -5 22
-7 2 -12 10 -12 18 0 8 -4 14 -10 14 -5 0 -10 -11 -10 -24z"/>
<path d="M577 1386 c-161 -60 -259 -240 -258 -476 0 -171 66 -348 172 -461 46
-49 40 -32 -10 31 -37 46 -22 42 36 -9 31 -28 58 -49 61 -47 5 5 -18 45 -42
73 -30 35 -5 27 68 -22 82 -54 102 -58 55 -9 l-34 36 68 -46 c38 -25 74 -46
80 -45 7 0 1 8 -13 17 -51 34 -134 118 -165 167 -79 125 -106 253 -81 392 33
188 161 322 327 341 l64 7 -60 30 c-50 25 -74 30 -145 33 -54 1 -99 -3 -123
-12z"/>
<path d="M1787 1230 c-6 -23 16 -56 31 -46 7 4 12 15 12 24 0 15 -2 15 -10 2
-8 -12 -10 -9 -10 13 0 31 -15 36 -23 7z"/>
<path d="M301 812 c-4 -139 67 -312 168 -413 85 -85 135 -111 227 -117 223
-14 414 136 469 369 8 35 14 89 13 119 -1 44 -2 47 -5 15 -6 -70 -35 -189 -55
-230 -23 -45 -77 -115 -122 -158 -96 -92 -275 -118 -398 -58 -57 27 -178 153
-212 219 -28 56 -55 141 -72 232 -11 61 -12 62 -13 22z"/>
</g>
</svg>
