<?xml version="1.0" standalone="no"?>
<!DOCTYPE svg PUBLIC "-//W3C//DTD SVG 20010904//EN"
 "http://www.w3.org/TR/2001/REC-SVG-20010904/DTD/svg10.dtd">
<svg version="1.0" xmlns="http://www.w3.org/2000/svg"
 width="570.000000pt" height="456.000000pt" viewBox="0 0 570.000000 456.000000"
 preserveAspectRatio="xMidYMid meet">

<g transform="translate(0.000000,456.000000) scale(0.100000,-0.100000)"
fill="#000000" stroke="none">
<path d="M1282 3313 c-18 -9 -35 -26 -38 -40 -6 -23 -8 -23 -93 -18 -294 17
-270 18 -597 -30 -170 -25 -328 -48 -352 -51 -38 -6 -41 -8 -25 -20 14 -10 72
-13 258 -14 132 0 312 -5 400 -12 217 -16 331 -16 347 0 15 15 190 17 219 2
34 -19 20 -27 -48 -28 -38 0 -96 -1 -130 -1 l-63 -1 0 -80 c0 -76 -1 -81 -25
-92 -30 -13 -65 -66 -65 -97 0 -34 26 -76 55 -89 14 -7 62 -12 105 -12 95 0
107 -17 35 -49 -57 -25 -85 -69 -85 -136 0 -65 28 -110 83 -135 54 -25 88 -25
136 0 52 26 81 75 81 136 0 64 -27 108 -85 136 -53 26 -62 53 -15 44 17 -3 44
-9 61 -12 17 -3 45 -19 64 -35 42 -38 90 -57 159 -65 67 -8 74 -28 16 -44
-116 -31 -182 -175 -131 -285 78 -169 314 -164 385 7 46 110 -20 247 -135 278
-62 17 -42 32 48 37 98 5 149 -11 159 -53 10 -40 -3 -211 -22 -284 -9 -36 -27
-88 -40 -117 -22 -50 -45 -176 -59 -316 l-7 -68 74 3 c67 3 73 5 76 26 2 12
-2 22 -9 22 -29 0 22 221 80 349 36 78 57 155 63 236 l3 30 84 5 83 5 17 35
c9 19 20 35 25 35 5 0 23 -45 41 -100 40 -128 76 -197 111 -215 22 -13 94 -15
424 -15 384 0 399 1 420 20 31 28 62 93 101 211 23 72 37 100 46 97 7 -3 13
-13 13 -23 0 -36 32 -50 113 -50 l77 0 0 -32 c1 -62 30 -171 65 -242 51 -103
88 -263 80 -338 l-7 -59 73 3 c87 4 82 -13 55 173 -11 78 -31 162 -58 240 -40
113 -42 128 -46 257 -4 135 -4 136 19 149 29 16 219 19 219 4 0 -6 -27 -22
-59 -36 -208 -92 -143 -398 85 -399 70 0 130 33 172 94 27 41 32 57 32 109 0
103 -51 174 -148 208 -40 14 -43 39 -4 39 52 0 136 31 169 62 26 25 111 57
156 58 21 0 2 -32 -26 -44 -104 -43 -127 -180 -42 -255 140 -122 337 69 217
211 -14 17 -41 37 -59 44 -18 8 -33 21 -33 29 0 12 17 15 86 15 82 0 87 1 116
30 27 28 30 36 25 76 -5 46 -38 94 -63 94 -10 0 -14 24 -16 87 l-3 87 -132 -2
c-73 -1 -133 1 -133 5 0 3 8 12 18 19 23 18 219 19 225 2 5 -16 120 -16 354 0
95 7 278 12 408 12 201 0 235 2 235 15 0 18 15 15 -335 67 -256 38 -308 43
-440 41 -82 -2 -178 -5 -212 -8 -60 -6 -62 -6 -75 21 -8 17 -28 34 -51 43 -34
12 -41 12 -77 -4 -23 -11 -40 -25 -40 -35 0 -9 -6 -24 -13 -33 -11 -16 -20
-16 -122 -3 -61 8 -265 20 -455 26 -190 6 -358 13 -375 16 l-30 5 26 -15 c14
-8 97 -24 185 -36 224 -29 450 -66 584 -96 110 -25 160 -44 112 -44 -21 0 -22
-5 -22 -70 0 -70 0 -70 -28 -70 -15 0 -115 18 -222 40 -107 22 -256 52 -330
66 -74 14 -211 47 -305 73 -252 72 -338 85 -550 85 -199 0 -263 -10 -449 -68
-61 -19 -244 -60 -406 -91 -162 -31 -349 -67 -415 -79 -66 -13 -123 -21 -127
-19 -5 2 -8 33 -8 69 0 54 -3 64 -17 64 -10 0 -13 3 -7 9 23 21 298 74 634
121 124 18 236 39 250 47 l25 14 -30 -5 c-16 -3 -174 -10 -350 -16 -287 -9
-470 -21 -561 -37 -29 -5 -33 -2 -44 32 -9 27 -21 41 -46 51 -42 18 -51 17
-92 -3z m503 -79 c-176 -13 -258 -16 -239 -8 24 10 176 21 289 21 l120 0 -170
-13z m2525 -9 l55 -13 -65 5 c-36 3 -139 11 -230 18 l-165 14 175 -5 c98 -3
199 -11 230 -19z m-3380 -46 c55 -6 113 -15 128 -19 33 -10 -554 -11 -683 -1
l-90 7 90 8 c50 4 95 9 100 11 24 8 364 4 455 -6z m4630 -7 c36 -9 -146 -17
-585 -27 -199 -4 -200 -4 -120 10 44 9 118 19 165 24 98 11 488 6 540 -7z
m-4230 -157 c0 -73 -1 -75 -25 -75 -24 0 -25 2 -25 75 0 73 1 75 25 75 24 0
25 -2 25 -75z m3300 0 c0 -73 -1 -75 -25 -75 -24 0 -25 2 -25 75 0 73 1 75 25
75 24 0 25 -2 25 -75z m-787 -172 c-490 -2 -1296 -2 -1790 0 -494 1 -92 2 892
2 985 0 1389 -1 898 -2z m-2453 -183 c101 -52 92 -195 -15 -236 -42 -16 -48
-16 -90 0 -106 41 -115 189 -14 239 45 22 72 21 119 -3z m3236 -5 c38 -24 57
-63 57 -111 0 -54 -24 -91 -77 -118 -119 -59 -237 93 -154 200 42 53 118 66
174 29z m-2778 -142 c48 -38 72 -87 72 -146 0 -166 -206 -240 -317 -114 -75
86 -48 223 55 276 56 29 143 22 190 -16z m2397 6 c80 -55 103 -170 51 -249
-74 -112 -251 -104 -313 13 -10 19 -17 55 -17 88 -1 69 33 127 92 156 55 27
141 23 187 -8z"/>
<path d="M1284 2651 c-88 -38 -84 -174 5 -211 108 -44 202 93 124 180 -30 34
-89 48 -129 31z"/>
<path d="M4498 2644 c-53 -28 -72 -98 -43 -154 39 -75 150 -78 195 -5 25 41
25 82 1 119 -36 54 -98 71 -153 40z"/>
<path d="M1642 2486 c-86 -78 -71 -206 32 -256 52 -25 79 -25 132 -1 98 45
118 171 40 250 -32 31 -42 35 -99 39 -62 4 -66 3 -105 -32z"/>
<path d="M4059 2497 c-115 -77 -76 -259 61 -282 49 -8 122 24 153 67 29 39 33
115 9 158 -43 79 -150 106 -223 57z"/>
<path d="M2380 2150 c0 -15 7 -20 25 -20 30 0 31 -4 5 -37 -27 -34 -25 -51 7
-85 21 -22 36 -28 69 -28 24 0 46 5 49 10 3 6 17 -3 31 -19 21 -26 24 -38 24
-115 0 -68 -4 -96 -21 -127 -25 -51 -37 -145 -27 -222 29 -217 251 -378 467
-338 263 49 415 337 301 573 -15 31 -20 62 -20 118 0 69 3 79 25 100 21 19 35
23 71 21 39 -2 51 2 75 25 34 33 36 52 9 87 -26 33 -25 37 5 37 18 0 25 5 25
20 0 20 -7 20 -560 20 -553 0 -560 0 -560 -20z m956 -39 c-9 -10 -21 -32 -25
-47 l-7 -29 -362 -3 c-340 -2 -362 -1 -362 15 0 10 -9 29 -20 43 -11 14 -20
28 -20 33 0 4 183 7 407 7 398 0 406 0 389 -19z m-250 -254 c109 -55 174 -165
174 -291 0 -85 -23 -146 -77 -206 -64 -71 -129 -102 -223 -108 -99 -5 -171 21
-238 86 -173 169 -113 454 113 535 73 26 183 19 251 -16z"/>
<path d="M2858 1805 c-117 -43 -187 -168 -160 -286 54 -234 368 -271 468 -54
43 91 25 205 -44 279 -62 66 -177 93 -264 61z m12 -110 c0 -2 -9 -19 -20 -37
-14 -23 -20 -51 -20 -88 0 -37 6 -65 20 -88 26 -42 25 -44 -7 -40 -99 11 -95
258 4 258 12 0 23 -2 23 -5z"/>
</g>
</svg>
