<?xml version="1.0" standalone="no"?>
<!DOCTYPE svg PUBLIC "-//W3C//DTD SVG 20010904//EN"
 "http://www.w3.org/TR/2001/REC-SVG-20010904/DTD/svg10.dtd">
<svg version="1.0" xmlns="http://www.w3.org/2000/svg"
 width="800.000000pt" height="867.000000pt" viewBox="0 0 800.000000 867.000000"
 preserveAspectRatio="xMidYMid meet">

<g transform="translate(0.000000,867.000000) scale(0.100000,-0.100000)"
fill="#000000" stroke="none">
<path d="M3457 8060 c-27 -8 -160 -121 -258 -219 -25 -25 -72 -66 -104 -91
-32 -25 -153 -136 -269 -247 -204 -196 -212 -203 -252 -203 -28 0 -47 -6 -59
-20 -12 -13 -31 -20 -56 -20 -21 0 -41 -4 -44 -10 -3 -5 -10 -10 -14 -10 -14
0 -41 70 -57 147 -9 42 -25 95 -36 118 -18 35 -71 111 -88 125 -19 16 -91 116
-129 178 -39 64 -47 73 -68 68 -20 -6 -23 -3 -23 21 0 32 -25 132 -36 142 -4
3 -9 1 -11 -6 -4 -12 -126 -103 -137 -103 -4 0 -4 11 0 25 11 44 -21 24 -44
-28 -16 -36 -15 -37 6 -37 21 0 129 67 151 93 7 9 17 17 21 17 4 0 13 -36 20
-80 10 -66 16 -80 31 -80 10 0 21 5 25 11 3 6 26 -24 50 -65 23 -42 71 -111
105 -154 80 -102 119 -174 124 -231 4 -41 4 -42 -4 -11 -5 19 -13 48 -20 64
-10 25 -13 27 -29 15 -39 -31 -40 -41 -7 -59 52 -28 23 -29 -32 -2 -32 16 -92
41 -133 56 -41 16 -88 34 -105 41 -114 48 -351 108 -475 120 -134 13 -142 15
-165 39 l-23 25 77 49 c66 44 258 152 267 152 13 0 116 51 112 56 -17 16 -242
-95 -400 -198 -67 -43 -79 -48 -96 -37 -17 11 -27 10 -62 -6 -23 -10 -53 -32
-66 -49 -15 -17 -28 -25 -32 -19 -12 18 -50 33 -81 33 -20 0 -42 -10 -63 -29
-27 -24 -33 -36 -33 -71 0 -37 -4 -45 -42 -73 -34 -26 -44 -43 -58 -90 -13
-45 -14 -65 -6 -89 9 -26 8 -36 -10 -64 -11 -19 -19 -42 -16 -51 3 -16 5 -16
12 2 5 11 35 60 68 108 54 79 68 93 137 133 58 34 81 54 94 82 l18 37 22 -26
c22 -25 24 -26 177 -26 224 -2 453 -43 655 -119 86 -32 384 -183 384 -195 0
-4 -5 -11 -12 -15 -7 -4 -8 -3 -4 4 4 8 -3 16 -19 22 -34 13 -42 13 -28 -1 6
-6 9 -18 6 -25 -3 -9 2 -14 13 -15 11 0 15 -2 9 -5 -5 -2 -8 -26 -7 -54 4 -49
-11 -80 -37 -80 -6 0 -12 -3 -12 -7 -4 -22 -8 -51 -12 -78 -3 -22 -10 -31 -27
-33 -32 -5 -51 -27 -44 -49 5 -14 4 -15 -4 -4 -9 12 -13 13 -26 1 -14 -11 -11
-16 31 -36 27 -12 68 -41 92 -64 24 -23 55 -46 70 -52 22 -10 23 -12 7 -16
-10 -2 -35 4 -55 13 -21 9 -41 15 -47 14 -21 -4 -35 2 -28 12 5 9 -1 10 -20 5
-20 -5 -26 -4 -20 5 4 7 3 9 -3 6 -6 -4 -36 -1 -67 5 l-56 12 26 23 c16 13 21
23 13 23 -8 -1 -30 -15 -49 -32 -22 -19 -28 -28 -15 -24 11 4 16 3 11 -1 -4
-4 -24 -8 -45 -9 l-37 0 0 92 c1 51 -2 87 -6 81 -5 -7 -8 -3 -8 11 0 12 -9 41
-21 64 -18 34 -23 39 -30 25 -18 -31 -39 -8 -39 43 0 29 -6 54 -15 63 -8 8
-11 19 -7 23 4 5 3 6 -2 2 -5 -4 -25 0 -45 8 -75 33 -199 65 -271 71 -41 3
-77 10 -80 14 -8 12 -75 -24 -73 -39 2 -6 -12 -19 -30 -27 l-32 -16 25 20 c34
28 22 26 -47 -6 -59 -27 -70 -31 -112 -36 -14 -2 -37 -18 -52 -36 -15 -18 -31
-31 -36 -28 -19 12 -31 -8 -21 -33 10 -24 10 -24 19 -5 8 17 9 16 4 -5 -2 -14
-5 -36 -5 -50 -1 -21 -4 -18 -25 21 -21 41 -28 46 -75 57 -28 7 -82 15 -118
18 -79 7 -89 0 -128 -93 -13 -32 -24 -51 -24 -43 0 15 46 161 65 205 8 17 7
18 -7 7 -35 -28 -87 -189 -89 -273 -1 -25 10 -82 24 -125 14 -43 36 -111 48
-151 23 -74 57 -141 122 -237 l38 -56 -10 -83 c-17 -143 -20 -197 -10 -197 5
0 2 -11 -7 -25 -9 -14 -14 -28 -11 -31 2 -3 60 -19 128 -35 68 -17 125 -32
126 -33 1 -1 -43 -41 -97 -89 -113 -99 -117 -110 -71 -174 39 -54 68 -73 112
-73 30 0 43 7 77 45 l41 45 38 -40 c40 -44 83 -59 161 -60 59 0 45 -16 -20
-23 -29 -3 -65 -10 -80 -16 -28 -10 -28 -10 -11 -45 16 -34 16 -35 -16 -82
-40 -61 -45 -81 -38 -161 6 -77 17 -91 134 -168 272 -179 408 -210 646 -145
60 16 120 36 133 45 28 18 39 53 30 103 -8 50 -34 83 -84 107 -43 21 -54 35
-26 35 41 0 157 44 237 90 87 50 88 50 175 50 240 0 488 -36 635 -92 43 -17
80 -28 83 -26 16 17 -334 368 -436 436 l-55 37 0 142 c0 78 -3 144 -7 148 -4
4 -28 -8 -54 -26 -46 -31 -167 -88 -190 -89 -12 0 -62 86 -54 92 3 2 26 13 52
25 112 53 118 199 12 263 -22 13 -41 25 -43 26 -2 2 14 18 35 36 232 200 276
254 324 396 18 54 20 85 19 217 -1 134 -4 160 -24 209 l-23 56 137 128 c75 71
159 149 186 173 246 221 447 410 471 443 22 31 18 79 -9 104 -25 24 -36 25
-80 12z m74 -31 c38 -38 8 -83 -157 -234 -252 -231 -254 -233 -254 -197 0 22
-35 57 -68 69 -22 8 -14 17 110 123 73 63 164 144 201 180 92 87 128 99 168
59z m-2244 -355 c38 -29 41 -46 12 -75 -21 -21 -50 -22 -91 -4 -28 12 -21 -11
7 -23 40 -19 71 -14 105 14 30 25 35 26 108 20 231 -21 534 -108 747 -215 96
-49 157 -86 169 -103 11 -15 18 -30 15 -32 -2 -2 -49 18 -104 46 -55 27 -127
60 -160 74 -33 14 -76 32 -95 41 -47 22 -213 69 -334 95 -77 16 -147 22 -293
26 l-193 4 -20 28 c-25 35 -16 66 32 104 41 32 53 32 95 0z m-200 -46 c28 -26
29 -38 4 -87 -14 -27 -39 -50 -88 -79 -80 -49 -103 -66 -103 -78 -1 -14 -40
-57 -46 -51 -4 3 -3 28 1 54 6 39 15 56 51 91 34 32 51 42 74 40 27 -2 70 24
70 44 0 14 -28 9 -34 -8 -3 -9 -15 -14 -28 -12 -33 4 -37 52 -7 84 29 31 75
31 106 2z m1200 -250 c-3 -7 -5 -2 -5 12 0 14 2 19 5 13 2 -7 2 -19 0 -25z
m389 -113 c31 -20 117 -196 102 -210 -2 -2 -22 1 -45 6 -35 9 -43 17 -64 61
-26 55 -85 114 -124 124 -30 7 -31 12 -7 30 20 17 105 10 138 -11z m-126 -43
c20 -11 55 -47 80 -83 38 -54 45 -71 44 -109 -1 -25 -13 -71 -27 -102 -22 -47
-32 -59 -59 -67 -29 -8 -36 -6 -57 17 l-24 27 22 5 c22 5 22 6 -8 28 -25 18
-31 30 -31 61 0 21 5 52 11 69 6 17 9 39 7 49 -3 14 -7 12 -20 -12 -9 -17 -20
-48 -24 -69 l-7 -39 -13 25 c-7 14 -19 58 -25 98 -15 98 -5 120 53 120 24 0
59 -8 78 -18z m-1145 -12 c-3 -5 -11 -10 -16 -10 -6 0 -7 5 -4 10 3 6 11 10
16 10 6 0 7 -4 4 -10z m255 -27 c47 -13 105 -34 130 -46 l45 -23 3 -78 c3 -69
5 -77 20 -71 34 13 61 12 67 -4 9 -24 27 -231 21 -247 -7 -17 16 -18 32 -2 9
9 15 9 24 0 9 -9 19 -7 45 9 24 15 44 20 68 16 32 -5 225 -93 225 -103 0 -3
-12 -16 -27 -29 l-28 -24 28 -1 c15 0 27 -2 27 -3 0 -2 -8 -28 -18 -58 -32
-93 -35 -112 -18 -106 12 5 16 0 16 -22 0 -51 -28 -97 -97 -160 -224 -204
-498 -308 -838 -318 -153 -4 -166 -3 -300 27 -77 18 -150 35 -162 37 -27 6
-28 11 -8 37 9 12 11 22 5 26 -6 4 -6 52 2 142 12 152 20 123 -66 262 -51 85
-92 197 -111 306 -19 108 -17 120 26 230 l32 80 45 0 c76 0 171 -21 177 -40 3
-9 19 -37 35 -63 35 -56 60 -62 60 -14 0 57 12 107 26 107 7 0 33 16 58 35 26
19 57 35 70 35 13 0 63 22 112 50 83 46 92 49 139 43 28 -3 88 -16 135 -30z
m720 -13 c0 -5 -5 -10 -11 -10 -5 0 -7 5 -4 10 3 6 8 10 11 10 2 0 4 -4 4 -10z
m-1075 -20 c-3 -5 -12 -10 -18 -10 -7 0 -6 4 3 10 19 12 23 12 15 0z m1085
-55 c0 -17 6 -39 13 -50 8 -11 17 -29 21 -39 5 -15 4 -17 -8 -7 -8 7 -16 8
-18 4 -3 -4 -3 -3 -2 4 2 7 -1 25 -6 40 -14 45 -21 110 -10 93 5 -8 10 -29 10
-45z m-1190 20 c0 -2 -10 -9 -22 -15 -22 -11 -22 -10 -4 4 21 17 26 19 26 11z
m1567 -87 c7 -6 13 -17 13 -24 0 -11 -9 -10 -40 6 -46 24 -54 46 -13 35 16 -4
34 -11 40 -17z m-387 -122 c0 -3 -4 -8 -10 -11 -5 -3 -10 -1 -10 4 0 6 5 11
10 11 6 0 10 -2 10 -4z m377 -68 c36 -36 19 -72 -40 -86 -24 -7 -53 -15 -63
-18 -15 -6 -17 -4 -7 6 10 11 3 20 -33 48 l-45 35 48 27 c56 31 101 27 140
-12z m-3 -145 c-4 -14 -11 -20 -20 -16 -13 5 -12 8 2 24 21 23 25 21 18 -8z
m-73 -80 c-12 -20 -14 -14 -5 12 4 9 9 14 11 11 3 -2 0 -13 -6 -23z m-262
-286 c-2 -1 -13 -9 -24 -17 -19 -14 -19 -14 -6 3 7 9 18 17 24 17 6 0 8 -1 6
-3z m-79 -53 c0 -8 -19 -13 -24 -6 -3 5 1 9 9 9 8 0 15 -2 15 -3z m-30 -17 c0
-2 -15 -13 -32 -26 l-33 -22 28 25 c26 24 37 31 37 23z m38 -44 c-3 -23 30
-73 48 -73 21 0 17 -33 -6 -48 -33 -20 -23 -31 21 -21 23 5 50 7 61 3 54 -17
-61 -73 -287 -139 -159 -46 -240 -57 -490 -62 -236 -5 -289 0 -163 17 198 27
352 77 503 164 50 29 118 66 152 84 35 17 82 45 104 62 48 34 61 37 57 13z
m41 -289 l22 -37 -27 -41 c-15 -22 -70 -84 -123 -136 -81 -80 -111 -102 -191
-142 -187 -92 -260 -111 -326 -83 -54 23 -192 55 -235 55 -22 0 -39 6 -42 14
-4 10 13 16 66 26 108 19 340 79 352 91 12 13 -20 7 -220 -38 -271 -61 -335
-65 -391 -21 -64 51 -85 178 -38 232 l25 28 67 -13 c93 -19 584 -19 667 -1
177 39 284 67 320 83 53 23 50 24 74 -17z m-1170 -33 l24 -6 -28 -33 c-25 -30
-27 -40 -26 -104 l1 -72 -45 -46 c-38 -39 -51 -46 -73 -42 -56 10 -101 63
-102 118 0 26 10 39 63 82 34 28 76 64 92 81 30 30 50 35 94 22z m216 -381 c3
-5 21 -10 38 -10 24 0 28 -3 17 -10 -13 -8 -12 -10 4 -10 11 0 16 -3 13 -7 -4
-3 -17 -1 -30 5 -12 7 -40 18 -62 26 -35 13 -37 15 -13 15 15 1 30 -3 33 -9z
m42 4 c-3 -3 -12 -4 -19 -1 -8 3 -5 6 6 6 11 1 17 -2 13 -5z m113 -15 c16 -6
10 -7 -20 -3 -25 4 -52 10 -60 15 -17 10 39 1 80 -12z"/>
<path d="M1761 6615 c-65 -37 -269 -193 -281 -214 -12 -24 -4 -31 30 -24 18 3
65 41 127 102 54 53 116 111 138 128 49 39 44 41 -14 8z"/>
<path d="M970 6394 c19 -8 63 -34 98 -56 60 -39 62 -41 42 -55 -25 -18 -26
-49 -1 -63 11 -5 41 -10 68 -9 36 0 43 3 28 9 -11 5 -33 9 -48 9 -31 1 -48 28
-26 42 8 5 32 9 53 9 l40 0 -48 30 c-78 50 -160 88 -202 94 l-39 6 35 -16z"/>
<path d="M1240 6202 c0 -16 11 -51 25 -78 14 -27 23 -54 21 -61 -7 -17 17 -23
88 -23 93 0 163 24 213 75 24 23 43 48 43 56 0 7 -14 -2 -32 -20 -50 -51 -118
-80 -200 -87 l-73 -6 -27 48 c-14 27 -29 66 -33 87 -8 43 -25 50 -25 9z"/>
<path d="M2196 7577 c3 -10 9 -15 12 -12 3 3 0 11 -7 18 -10 9 -11 8 -5 -6z"/>
<path d="M2234 7516 c4 -10 1 -25 -6 -33 -10 -13 -9 -15 6 -12 26 5 29 21 10
44 -15 19 -15 19 -10 1z"/>
<path d="M1882 7040 c0 -14 2 -19 5 -12 2 6 2 18 0 25 -3 6 -5 1 -5 -13z"/>
<path d="M3100 6155 c-105 -30 -156 -65 -199 -135 -24 -40 -28 -118 -9 -184
14 -50 34 -75 24 -31 -4 17 -3 25 1 19 4 -6 16 -13 26 -17 11 -4 15 -12 11
-19 -5 -7 -2 -9 8 -5 11 4 18 -2 22 -16 10 -39 6 -41 -24 -12 -38 37 -39 19
-1 -24 54 -61 145 -61 176 0 22 41 19 105 -5 129 -20 20 -46 28 -35 10 3 -5
-6 -17 -20 -26 -22 -14 -29 -15 -50 -4 -21 11 -25 21 -25 57 0 38 6 49 48 92
39 40 55 50 95 56 52 7 85 -8 149 -67 44 -42 62 -161 38 -249 -20 -72 -147
-147 -230 -136 -46 6 -149 54 -219 102 -66 46 -98 57 -133 50 -32 -8 -38 -25
-8 -25 21 0 99 -60 179 -137 24 -24 47 -40 52 -37 10 6 89 -15 104 -28 5 -5
-3 -7 -20 -4 -17 2 -23 1 -15 -1 8 -3 20 -9 25 -13 20 -16 155 7 172 28 19 26
15 37 -6 18 -14 -12 -24 -14 -42 -7 -18 7 -19 10 -6 10 10 1 49 17 88 37 39
19 76 33 82 30 7 -2 4 -5 -5 -5 -10 -1 -18 -5 -18 -10 0 -5 -10 -11 -22 -15
-17 -4 -20 -8 -10 -14 10 -7 10 -11 -3 -22 -9 -7 -15 -9 -14 -4 1 5 1 16 0 24
-1 13 -3 13 -10 0 -6 -8 -7 -18 -5 -22 3 -5 -2 -11 -10 -14 -27 -10 -18 -21
14 -16 33 5 88 52 134 114 26 35 88 192 80 201 -3 2 -7 15 -9 28 -13 67 -19
88 -41 131 -29 57 -75 112 -128 150 -33 24 -48 28 -100 27 -34 0 -81 -7 -106
-14z m285 -525 c3 -5 2 -10 -4 -10 -5 0 -13 5 -16 10 -3 6 -2 10 4 10 5 0 13
-4 16 -10z"/>
</g>
</svg>
