<svg id="Layer_5" enable-background="new 0 0 64 64" height="512" viewBox="0 0 64 64" width="512" xmlns="http://www.w3.org/2000/svg"><g><g><g><path d="m15 26h-4c-1.1 0-2 .9-2 2v10c0 1.1.9 2 2 2h4c1.1 0 2-.9 2-2v-10c0-1.1-.9-2-2-2z" fill="#dfb28b"/></g><g><path d="m53 26h-4c-1.1 0-2 .9-2 2v1 9c0 1.1.9 2 2 2h4c1.1 0 2-.9 2-2v-10c0-1.1-.9-2-2-2z" fill="#dfb28b"/></g><g><path d="m53 18v8h-4c-1.1 0-2 .9-2 2v-10z" fill="#b27946"/></g><g><path d="m17 18v10c0-1.1-.9-2-2-2h-4v-8z" fill="#b27946"/></g><g><path d="m11 50h6v12h-6z" fill="#b27946"/></g><g><path d="m47 50h6v12h-6z" fill="#b27946"/></g><g><path d="m53 46v4h-6-30-6v-4z" fill="#d3a06c"/></g><g><path d="m53 40v6h-42v-6h4c1.1 0 2-.9 2-2v-2-4h5.65l-1.65 8h22l-1.65-8h5.65v4 2c0 1.1.9 2 2 2z" fill="#cf9e76"/></g><g><path d="m27.18 10-1.65 8h-8.53-6c-1.1 0-2-.9-2-2v-4c0-1.1.9-2 2-2z" fill="#cf9e76"/></g><g><path d="m53 10h-16.18l.83 4 .82 4h14.53c1.1 0 2-.9 2-2v-4c0-1.1-.9-2-2-2z" fill="#cf9e76"/></g><g><path d="m38 2v4h-2-8-2v-4z" fill="#ff826e"/></g><g><path d="m28 6h8l.82 4 .83 4 .82 4 1.65 8 1.23 6 1.65 8h-22l1.65-8 2.88-14 1.65-8z" fill="#ccd1d9"/></g></g><g><path d="m54 51v-1-9.184c1.161-.414 2-1.514 2-2.816v-10c0-1.302-.839-2.402-2-2.816v-6.369c1.161-.414 2-1.514 2-2.816v-4c0-1.654-1.346-3-3-3h-15.361l-.412-2h1.773v-5.999h-14v6h1.773l-.412 2h-15.361c-1.654 0-3 1.346-3 3v4c0 1.302.839 2.402 2 2.816v6.369c-1.161.413-2 1.513-2 2.815v10c0 1.302.839 2.402 2 2.816v9.184 1 10h-5v2h54v-2h-5zm-2 10h-4v-10h4zm-42-24h6v1c0 .551-.448 1-1 1h-4c-.552 0-1-.449-1-1zm6-18v6.184c-.314-.112-.648-.184-1-.184h-3v-6zm2 0h6.303l-2.471 12h-3.832v-3zm-3 22c1.654 0 3-1.346 3-3v-5h3.42l-1.647 8h24.453l-1.647-8h3.421v5c0 1.654 1.346 3 3 3h3v4h-40v-4zm27-24h-2.714l-.412-2h3.126zm0 2v6h-1.067l-1.235-6zm2 8v-8h2v9 1 2h-3.832l-.823-4zm10 8h-6v-6-1c0-.551.448-1 1-1h4c.552 0 1 .449 1 1zm-5-10c-.352 0-.686.072-1 .184v-6.184h4v6zm-37 22h40v2h-40zm34 4v10h-28v-10zm7-12h-4c-.552 0-1-.449-1-1v-1h6v1c0 .551-.448 1-1 1zm0-28c.552 0 1 .449 1 1v4c0 .551-.448 1-1 1h-9v-4h-5.538l-.412-2zm-26-8h10v2h-10zm8.185 4 6.589 32h-19.547l6.589-32zm-25.185 5c0-.551.448-1 1-1h14.95l-1.235 6h-13.715c-.552 0-1-.449-1-1zm1 15h4c.552 0 1 .449 1 1v7h-6v-7c0-.551.448-1 1-1zm1 24h4v10h-4z"/><path d="m22.668 18.5h13.273v2h-13.273z" transform="matrix(.202 -.98 .98 .202 4.295 44.269)"/><path d="m30.24 9h2.042v2h-2.042z" transform="matrix(.202 -.98 .98 .202 15.162 38.602)"/><path d="m1 61h2v2h-2z"/><path d="m61 61h2v2h-2z"/></g></g></svg>