<svg height="496pt" viewBox="0 0 496 496" width="496pt" xmlns="http://www.w3.org/2000/svg"><g fill="#f0bc5e"><path d="m464 240v-144h-48v144h-31.542969l55.542969 80 56-80zm0 0"/><path d="m280 488-16-96 23.160156-28.425781-39.160156-27.574219-39.160156 27.574219 23.160156 28.425781-16 96zm0 0"/><path d="m256 201.28125c0-8.136719 4.046875-15.695312 10.816406-20.210938 8.253906-5.503906 13.183594-14.710937 13.183594-24.628906 0-4.050781-.808594-7.976562-2.398438-11.664062l-19.632812-45.824219c-1.304688-3.058594-1.96875-6.28125-1.96875-9.578125v-81.375h-136v103c0 69.871094 37.441406 134.390625 98.105469 169.054688 9.101562 5.210937 19.40625 7.945312 29.894531 7.945312 2.6875 0 5.351562-.191406 8-.542969zm0 0"/></g><path d="m402.328125 315.703125-98.328125-25.871094v-17.503906c49.894531-38.007813 80-97.6875 80-161.320313v-111.007812h-272v111c0 63.632812 30.105469 123.3125 80 161.320312v17.503907l-98.328125 25.871093c-31.601563 8.328126-53.671875 36.960938-53.671875 69.640626v110.664062h416v-110.664062c0-32.679688-22.070312-61.3125-53.671875-69.632813zm-204.28125-10.917969 36.875 30.726563-36.328125 25.953125-5.539062-55.359375zm99.90625 0 4.992187 1.3125-5.539062 55.359375-36.328125-25.953125zm-169.953125-193.785156v-95h240v95c0 66.832031-36.046875 128.953125-94.078125 162.113281-15.753906 9.007813-36.097656 9.007813-51.84375 0-58.03125-33.152343-94.078125-95.273437-94.078125-162.113281zm86.144531 176.007812c10.289063 5.878907 22 8.992188 33.855469 8.992188s23.566406-3.113281 33.855469-8.992188c2.097656-1.199218 4.097656-2.519531 6.144531-3.785156v9.035156l-40 33.335938-40-33.335938v-9.035156c2.039062 1.265625 4.039062 2.585938 6.144531 3.785156zm225.855469 192.992188h-48v-112h-16v112h-256v-112h-16v112h-48v-94.664062c0-25.414063 17.167969-47.6875 41.753906-54.152344l79.628906-20.960938 8.03125 80.3125 62.585938-44.703125 62.585938 44.703125 8.03125-80.3125 79.628906 20.960938c24.585937 6.464844 41.753906 28.738281 41.753906 54.152344zm0 0"/><path d="m288.238281 249.945312 15.515625-3.882812c-.378906-1.558594-10.121094-38.0625-63.753906-38.0625-40.664062 0-47.96875-24.960938-48.257812-26.023438l-15.503907 3.96875c.386719 1.550782 10.128907 38.054688 63.761719 38.054688 40.664062 0 47.96875 24.960938 48.238281 25.945312zm0 0"/><path d="m208 104h16c0-22.054688-17.945312-40-40-40s-40 17.945312-40 40h16c0-13.230469 10.769531-24 24-24s24 10.769531 24 24zm0 0"/><path d="m312 112c22.054688 0 40-17.945312 40-40h-16c0 13.230469-10.769531 24-24 24s-24-10.769531-24-24h-16c0 22.054688 17.945312 40 40 40zm0 0"/><path d="m6.0625 62.632812 11.3125 11.3125 14.625-14.632812v20.6875h16v-20.6875l14.625 14.632812 11.3125-11.3125-14.625-14.632812h20.6875v-16h-20.6875l14.625-14.632812-11.3125-11.3125-14.625 14.632812v-20.6875h-16v20.6875l-14.625-14.632812-11.3125 11.3125 14.625 14.632812h-20.6875v16h20.6875zm17.9375-16.007812v-13.25l9.375-9.375h13.25l9.375 9.375v13.25l-9.375 9.375h-13.25zm0 0"/><path d="m64 160h16v16h-16zm0 0"/><path d="m48 176h16v16h-16zm0 0"/><path d="m64 192h16v16h-16zm0 0"/><path d="m80 176h16v16h-16zm0 0"/><path d="m16 272h16v16h-16zm0 0"/><path d="m0 288h16v16h-16zm0 0"/><path d="m16 304h16v16h-16zm0 0"/><path d="m32 288h16v16h-16zm0 0"/><path d="m448 96h16v16h-16zm0 0"/><path d="m448 128h16v16h-16zm0 0"/></svg>