<svg id="Layer_5" enable-background="new 0 0 64 64" height="512" viewBox="0 0 64 64" width="512" xmlns="http://www.w3.org/2000/svg"><g><g><g><path d="m54 54v8h-16l.83-8.69c.05-.57.14-1.14.25-1.69.55-2.84 1.78-5.44 3.54-7.62.97-1.21 2.11-2.29 3.38-3.21 1.77-1.28 3.79-2.24 6-2.79 2.97.89 5.47 2.7 7.23 5.06 1.75 2.36 2.77 5.28 2.77 8.38v2.56z" fill="#b4dd7f"/></g><g><path d="m16 22c0-1.1.9-2 2-2h2v14h-2c-1.1 0-2-.9-2-2v-1.05-8z" fill="#aab2bd"/></g><g><path d="m16 22.95v8l-10 5.05v-18z" fill="#ccd1d9"/></g><g><path d="m6 36v1c0 .55-.45 1-1 1h-2c-.55 0-1-.45-1-1v-20c0-.55.45-1 1-1h2c.55 0 1 .45 1 1v1z" fill="#ff826e"/></g><g><path d="m32 9.82v6.18h-6v-6h5c.35 0 .69-.06 1-.18z" fill="#969faa"/></g><g><path d="m32 9.82c-.31.12-.65.18-1 .18h-5-3c.89-1.79 1-2.38 1-3 0-1.13-.37-2.17-1-3h8c.83 0 1.58.34 2.12.88s.88 1.29.88 2.12c0 1.31-.83 2.42-2 2.82z" fill="#aab2bd"/></g><g><path d="m23 4c.63.83 1 1.87 1 3 0 .62-.11 1.21-1 3-.14.19-.29.37-.46.54-.91.9-2.16 1.46-3.54 1.46h-8c-2.76 0-5-2.24-5-5 0-1.38.56-2.63 1.46-3.54.91-.9 2.16-1.46 3.54-1.46h8c1.63 0 3.09.79 4 2z" fill="#ccd1d9"/></g><g><path d="m34 18h4v2h-14v14h18 1 3v4h-18.73-5.27c-1.1 0-2-.9-2-2v-2-14-2c0-1.1.9-2 2-2h4 6c0 .55.22 1.05.59 1.41.36.37.86.59 1.41.59z" fill="#ccd1d9"/></g><g><path d="m24 20h14v.39c0 .4-.12.79-.34 1.11l-1.3 1.95c-.23.36-.36.78-.36 1.21 0 .82.46 1.57 1.2 1.94l.25.12c.34.17.55.52.55.9v2.38c0 2.21 1.79 4 4 4h-18z" fill="#69d6f4"/></g><g><path d="m60 14v4h-8-2c0-2.21-1.79-4-4-4h-10c0-4.42 3.58-8 8-8h8c4.42 0 8 3.58 8 8z" fill="#fcd770"/></g><g><path d="m50 18h-12-4c-.55 0-1.05-.22-1.41-.59-.37-.36-.59-.86-.59-1.41 0-1.1.9-2 2-2h2 10c2.21 0 4 1.79 4 4z" fill="#ffc729"/></g><g><path d="m60 18v6.07c0 4.17-2.59 7.9-6.49 9.36l-1.51.57v-4l2.67-2c.84-.63 1.33-1.62 1.33-2.67 0-.92-.37-1.75-.98-2.35-.6-.61-1.43-.98-2.35-.98h-.67v-4z" fill="#656d78"/></g><g><path d="m54 54h8v8h-8z" fill="#f0d0b4"/></g><g><path d="m38.06 44h4.56c-1.76 2.18-2.99 4.78-3.54 7.62h-.01c-7.52-1.37-13.99-6.42-17.07-13.62h5.27c2.32 3.73 6.4 6 10.79 6z" fill="#f0d0b4"/></g><g><path d="m38 30v-2.38c0-.38-.21-.73-.55-.9l-.25-.12c-.74-.37-1.2-1.12-1.2-1.94 0-.43.13-.85.36-1.21l1.3-1.95c.22-.32.34-.71.34-1.11v-.39-2h12 2v4h.67c.92 0 1.75.37 2.35.98.61.6.98 1.43.98 2.35 0 1.05-.49 2.04-1.33 2.67l-2.67 2v4 2 1 1c-2.21.55-4.23 1.51-6 2.79v-2.79-4h-3-1c-2.21 0-4-1.79-4-4z" fill="#f0d0b4"/></g></g><g><circle cx="42" cy="22" r="1"/><path d="m53 37.274v-.274-1-1.307l.862-.323c4.27-1.601 7.138-5.74 7.138-10.3v-10.07c0-4.963-4.038-9-9-9h-8c-4.624 0-8.442 3.507-8.941 8h-1.059c-.352 0-.686.072-1 .184v-2.741c1.19-.693 2-1.969 2-3.443 0-2.206-1.794-4-4-4h-7.54c-1.1-1.224-2.689-2-4.46-2h-8c-3.309 0-6 2.691-6 6s2.691 6 6 6h8c1.771 0 3.36-.776 4.46-2h1.54v4h-3c-1.654 0-3 1.346-3 3v1h-1c-1.44 0-2.644 1.02-2.932 2.375l-8.068-3.996v-.379c0-1.103-.897-2-2-2h-2c-1.103 0-2 .897-2 2v20c0 1.103.897 2 2 2h2c1.103 0 2-.897 2-2v-.385l8.056-4.066c.259 1.393 1.478 2.451 2.944 2.451h1v1c0 1.421.996 2.609 2.325 2.917 3.139 6.87 9.266 11.835 16.616 13.485-.038.272-.083.542-.109.817l-.932 9.781h26.1v-11.56c0-6.439-3.988-12.041-10-14.166zm-2-.274v.236c-1.417.419-2.754 1.005-4 1.726v-5.962h-4-1c-1.302 0-2.402-.839-2.816-2h1.816c2.206 0 4-1.794 4-4h-2c0 1.103-.897 2-2 2h-2v-1.382c0-.764-.424-1.449-1.106-1.789l-.246-.123c-.399-.2-.648-.602-.648-1.049 0-.231.068-.456.197-.649l1.299-1.948c.33-.495.504-1.07.504-1.665v-1.395h12v4h1.667c1.286 0 2.333 1.047 2.333 2.333 0 .73-.349 1.429-.934 1.867l-3.066 2.3v6.5zm-8.834 6h-4.102c-3.428 0-6.589-1.476-8.79-4h15.726v1.298c-1.04.799-1.988 1.707-2.834 2.702zm-5.412-15.505.246.123v2.382c0 1.13.391 2.162 1.026 3h-13.026v-12h11.798l-1.265 1.898c-.349.523-.533 1.131-.533 1.759 0 1.209.672 2.297 1.754 2.838zm16.406 5.002-.16.06v-2.057l2.267-1.7c1.085-.815 1.733-2.111 1.733-3.467 0-2.277-1.766-4.149-4-4.32v-2.013h6v5.07c0 3.731-2.347 7.118-5.84 8.427zm-9.16-25.497h8c3.86 0 7 3.141 7 7v3h-8.101c-.464-2.279-2.485-4-4.899-4h-8.92c.488-3.386 3.401-6 6.92-6zm-10 8h12c1.304 0 2.416.836 2.829 2h-14.829c-.551 0-1-.448-1-1s.449-1 1-1zm-15-4h-8c-2.206 0-4-1.794-4-4s1.794-4 4-4h8c2.206 0 4 1.794 4 4s-1.794 4-4 4zm5.65-6h6.35c1.103 0 2 .897 2 2s-.897 2-2 2h-6.35c.222-.627.35-1.298.35-2s-.128-1.373-.35-2zm2.35 6h4v4h-4zm-24 26v-20h2l.001 20zm4-17.388 8 3.963v6.764l-8 4.038zm11 13.388c-.551 0-1-.448-1-1v-10c0-.552.449-1 1-1h1v12zm3-15c0-.552.449-1 1-1h9.184c.414 1.161 1.514 2 2.816 2h-11v16h19 1 2v2h-23c-.551 0-1-.448-1-1zm2.579 21h3.181c2.556 3.757 6.727 6 11.303 6h2.624c-1.065 1.658-1.879 3.487-2.374 5.438-6.381-1.454-11.754-5.631-14.734-11.438zm16.244 14.408c.653-6.853 5.521-12.593 12.152-14.369 5.41 1.744 9.025 6.693 9.025 12.401v1.56h-6v-4h-2v12h-13.9zm15.177 7.592v-6h6v6z"/></g></g></svg>