<svg height="512" viewBox="0 0 64 64" width="512" xmlns="http://www.w3.org/2000/svg"><g id="Filled_outline" data-name="Filled outline"><path d="m32 32-9-11-20 3 15 13z" fill="#8ccae0"/><path d="m3 24 29 8-9-11z" fill="#cfdfe8"/><path d="m32 32-9-11 9-18 9 18z" fill="#8ccae0"/><path d="m32 32 9-11 20 3-15 13z" fill="#cfdfe8"/><path d="m50 61-4-24-14-5v14z" fill="#8ccae0"/><path d="m14 61 4-24 14-5v14z" fill="#cfdfe8"/><path d="m32 32 9-11 20 3z" fill="#8ccae0"/><path d="m32 32v-29l9 18z" fill="#cfdfe8"/><path d="m14 61 18-15v-14z" fill="#8ccae0"/><path d="m50 61-18-15v-14z" fill="#cfdfe8"/><path d="m19 17-6-11-6 6z" fill="#32b1cc"/><path d="m45 17 6-11 6 6z" fill="#32b1cc"/><path d="m8 18h2v2h-2z" fill="#fcf05a"/><path d="m57 33h2v2h-2z" fill="#fcf05a"/><path d="m22 58h2v2h-2z" fill="#fcf05a"/><g fill="#32b1cc"><path d="m4 39h9l-6 7z"/><path d="m60 39h-9l6 7z"/><path d="m32 52-3 9h6z"/></g><path d="m61.148 23.011-19.486-2.923-8.762-17.535a1.042 1.042 0 0 0 -1.79 0l-8.772 17.535-19.486 2.923a1 1 0 0 0 -.507 1.745l14.577 12.633-3.908 23.447a1 1 0 0 0 1.627.933l17.359-14.469 17.359 14.469a1 1 0 0 0 .641.231 1 1 0 0 0 .986-1.164l-3.908-23.447 14.577-12.633a1 1 0 0 0 -.507-1.745zm-38.562-.937 6.65 8.126-21.425-5.91zm-15.592 4.064 21.69 5.984-10.47 3.74zm11.9 11.606 10.747-3.844-13.823 22.274zm12.106 7.787-12.889 10.741 12.889-20.765zm0-16.331-6.816-8.33 6.816-13.634zm25.19-4.91-21.425 5.91 6.649-8.126zm-23.19-17.054 6.816 13.632-6.816 8.332zm0 38.3v-10.029l12.889 20.765zm15.182 10.638-13.823-22.274 10.751 3.84zm-2.4-20.312-10.467-3.739 21.69-5.984z"/><path d="m19 18a1 1 0 0 0 .878-1.479l-6-11a1 1 0 0 0 -1.585-.228l-6 6a1 1 0 0 0 .322 1.63l12 5a1 1 0 0 0 .385.077zm-10.237-6.349 4-4 4 7.331z"/><path d="m45.385 17.923 12-5a1 1 0 0 0 .322-1.63l-6-6a1 1 0 0 0 -1.585.228l-6 11a1 1 0 0 0 1.263 1.4zm5.853-10.271 4 4-8 3.332z"/><path d="m8 18h2v2h-2z"/><path d="m57 33h2v2h-2z"/><path d="m22 58h2v2h-2z"/><path d="m13.908 38.582a1 1 0 0 0 -.908-.582h-9a1 1 0 0 0 -.919 1.394l3 7a1 1 0 0 0 .768.594.961.961 0 0 0 .151.012 1 1 0 0 0 .759-.35l6-7a1 1 0 0 0 .149-1.068zm-6.622 5.548-1.769-4.13h5.309z"/><path d="m50.092 38.582a1 1 0 0 0 .149 1.068l6 7a1 1 0 0 0 .759.35.961.961 0 0 0 .151-.012 1 1 0 0 0 .768-.594l3-7a1 1 0 0 0 -.919-1.394h-9a1 1 0 0 0 -.908.582zm8.391 1.418-1.769 4.13-3.54-4.13z"/><path d="m29 62h6a1 1 0 0 0 .948-1.316l-3-9a1 1 0 0 0 -1.9 0l-3 9a1 1 0 0 0 .952 1.316zm3-6.838 1.612 4.838h-3.224z"/></g></svg>